<?xml version="1.0" standalone="no"?>
<!DOCTYPE svg PUBLIC "-//W3C//DTD SVG 20010904//EN"
 "http://www.w3.org/TR/2001/REC-SVG-20010904/DTD/svg10.dtd">
<svg version="1.0" xmlns="http://www.w3.org/2000/svg"
 width="171.000000pt" height="171.000000pt" viewBox="0 0 171.000000 171.000000"
 preserveAspectRatio="xMidYMid meet">
<metadata>
Created by potrace 1.14, written by Peter Selinger 2001-2017
</metadata>
<g transform="translate(0.000000,171.000000) scale(0.100000,-0.100000)"
fill="#000000" stroke="none">
<path d="M54 1699 c-11 -6 -28 -23 -37 -39 -16 -26 -17 -98 -17 -810 l0 -782
34 -34 34 -34 781 0 c539 0 787 3 804 11 13 6 31 23 40 39 16 26 17 98 17 810
l0 782 -34 34 -34 34 -783 -1 c-506 0 -791 -4 -805 -10z"/>
</g>
</svg>
